<svg width="261" height="317" viewBox="0 0 261 317" fill="none" xmlns="http://www.w3.org/2000/svg">
<path d="M21.672 160.668H21.992C22.0027 161.009 22.0453 161.271 22.12 161.452C22.184 161.633 22.312 161.756 22.504 161.82C22.6853 161.873 22.9733 161.9 23.368 161.9H31.304C31.688 161.9 31.976 161.868 32.168 161.804C32.36 161.74 32.488 161.623 32.552 161.452C32.616 161.271 32.6587 161.009 32.68 160.668H33C32.9787 160.945 32.968 161.297 32.968 161.724C32.9573 162.151 32.952 162.583 32.952 163.02C32.952 163.5 32.9573 163.953 32.968 164.38C32.968 164.796 32.9787 165.132 33 165.388H32.68C32.6587 165.025 32.616 164.753 32.552 164.572C32.488 164.38 32.36 164.252 32.168 164.188C31.976 164.124 31.688 164.092 31.304 164.092H22.6L22.616 163.98L33.048 167.948V168.204L22.696 172.428H30.632C31.144 172.428 31.544 172.396 31.832 172.332C32.1093 172.268 32.312 172.129 32.44 171.916C32.5573 171.692 32.6373 171.356 32.68 170.908H33C32.9787 171.111 32.968 171.372 32.968 171.692C32.9573 172.012 32.952 172.316 32.952 172.604C32.952 172.86 32.9573 173.121 32.968 173.388C32.968 173.644 32.9787 173.857 33 174.028H32.68C32.6373 173.676 32.5573 173.415 32.44 173.244C32.3227 173.063 32.1307 172.945 31.864 172.892C31.5973 172.828 31.2293 172.796 30.76 172.796H23.368C22.9733 172.796 22.6853 172.828 22.504 172.892C22.312 172.945 22.184 173.063 22.12 173.244C22.0453 173.415 22.0027 173.676 21.992 174.028H21.672C21.6827 173.857 21.6933 173.644 21.704 173.388C21.7147 173.121 21.72 172.86 21.72 172.604C21.72 172.209 21.7147 171.825 21.704 171.452C21.6933 171.079 21.6827 170.748 21.672 170.46L30.264 167.02L30.552 167.372L21.72 164.028C21.72 163.868 21.72 163.703 21.72 163.532C21.72 163.351 21.72 163.18 21.72 163.02C21.72 162.583 21.7147 162.151 21.704 161.724C21.6933 161.297 21.6827 160.945 21.672 160.668Z" fill="black"/>
<path d="M22.6225 151.155C22.7846 150.08 23.1537 149.17 23.7296 148.426C24.3056 147.682 25.0541 147.153 25.9753 146.839C26.8874 146.513 27.95 146.441 29.1629 146.624C30.3443 146.802 31.343 147.19 32.159 147.787C32.9766 148.374 33.5713 149.117 33.943 150.014C34.3164 150.901 34.4235 151.872 34.2646 152.926C34.1024 154.002 33.7333 154.912 33.1574 155.656C32.5814 156.4 31.8321 156.934 30.9094 157.259C29.9883 157.573 28.9265 157.639 27.7241 157.458C26.5427 157.28 25.5441 156.892 24.728 156.295C23.912 155.697 23.3173 154.955 22.944 154.068C22.5707 153.181 22.4635 152.21 22.6225 151.155ZM22.8977 151.262C22.8039 151.884 22.9594 152.463 23.364 152.999C23.7703 153.524 24.371 153.976 25.1661 154.354C25.9612 154.733 26.9072 155.005 28.0042 155.17C29.1222 155.339 30.1193 155.344 30.9955 155.184C31.8611 155.024 32.5573 154.735 33.084 154.318C33.6001 153.9 33.9019 153.4 33.9893 152.82C34.0831 152.198 33.9269 151.624 33.5206 151.099C33.1159 150.564 32.516 150.106 31.7209 149.728C30.9153 149.347 29.9692 149.075 28.8828 148.911C27.7543 148.741 26.7571 148.737 25.8915 148.898C25.0259 149.058 24.335 149.348 23.8189 149.766C23.2938 150.173 22.9867 150.671 22.8977 151.262Z" fill="black"/>
<path d="M37.5757 137.59L37.2699 137.496C37.3533 137.153 37.3896 136.891 37.3787 136.709C37.371 136.517 37.2833 136.367 37.1155 136.26C36.9509 136.142 36.6852 136.026 36.3182 135.913L28.7348 133.574C28.3577 133.458 28.073 133.403 27.8809 133.411C27.6817 133.405 27.5248 133.48 27.4102 133.634C27.2885 133.775 27.1707 134.012 27.0568 134.346L26.751 134.251C26.8461 133.979 26.9616 133.641 27.0976 133.236C27.2335 132.832 27.3644 132.426 27.4901 132.018C27.6285 131.57 27.7523 131.15 27.8616 130.76C27.974 130.359 28.0613 130.04 28.1234 129.802L28.4292 129.897C28.3387 130.226 28.3025 130.488 28.3204 130.683C28.3312 130.865 28.419 131.015 28.5836 131.133C28.738 131.248 29.0038 131.363 29.3809 131.479L36.9643 133.819C37.3313 133.932 37.6159 133.986 37.8182 133.982C38.0206 133.977 38.1775 133.903 38.2889 133.758C38.4035 133.604 38.5213 133.367 38.6423 133.047L38.9481 133.141C38.8554 133.369 38.7477 133.682 38.6251 134.08C38.4955 134.464 38.3615 134.88 38.2231 135.329C38.0974 135.736 37.9767 136.146 37.8611 136.557C37.7354 136.964 37.6402 137.309 37.5757 137.59ZM35.5855 144.042L35.2798 143.948C35.3631 143.605 35.3994 143.343 35.3885 143.161C35.3808 142.969 35.2931 142.819 35.1253 142.712C34.9607 142.594 34.695 142.478 34.328 142.365L26.7446 140.026C26.3675 139.91 26.0828 139.855 25.8907 139.863C25.6915 139.857 25.5346 139.932 25.42 140.086C25.2983 140.227 25.1805 140.465 25.0666 140.798L24.7608 140.703C24.8496 140.452 24.9604 140.129 25.0932 139.734C25.226 139.34 25.3632 138.913 25.5047 138.455C25.6304 138.047 25.7495 137.643 25.8619 137.242C25.9744 136.842 26.0648 136.512 26.1332 136.254L26.439 136.349C26.3486 136.678 26.3123 136.94 26.3302 137.135C26.341 137.317 26.4288 137.467 26.5934 137.585C26.7478 137.7 27.0136 137.815 27.3907 137.931L34.9741 140.271C35.3411 140.384 35.6257 140.438 35.828 140.434C36.0304 140.429 36.1873 140.355 36.2987 140.21C36.4133 140.056 36.5311 139.819 36.6521 139.499L36.9579 139.593C36.8589 139.842 36.7481 140.165 36.6255 140.562C36.4927 140.957 36.3634 141.358 36.2377 141.765C36.0962 142.224 35.9692 142.654 35.8568 143.054C35.7342 143.452 35.6438 143.781 35.5855 144.042ZM31.0453 139.98L30.7396 139.885L32.6024 133.846L32.9082 133.94L31.0453 139.98Z" fill="black"/>
<path d="M32.0091 120.373C32.2683 119.835 32.525 119.45 32.7791 119.217C33.0333 118.984 33.2786 118.794 33.5149 118.648C33.6377 118.565 33.7346 118.499 33.8054 118.45C33.8713 118.387 33.9204 118.322 33.9528 118.255C33.9991 118.159 33.9786 118.066 33.8914 117.977C33.8088 117.878 33.6688 117.763 33.4712 117.632L33.6309 117.301C33.8089 117.398 34.0134 117.514 34.2444 117.649C34.48 117.775 34.7973 117.939 35.1963 118.143C35.5903 118.333 36.1141 118.585 36.7676 118.9L36.6079 119.231C36.1039 119.024 35.5798 118.908 35.0355 118.883C34.4959 118.848 33.9987 118.934 33.5437 119.141C33.0838 119.334 32.7266 119.695 32.4721 120.223C32.2453 120.694 32.1949 121.155 32.3209 121.607C32.4515 122.048 32.7522 122.383 33.2231 122.609C33.6267 122.804 34.0165 122.867 34.3924 122.8C34.7587 122.727 35.1595 122.571 35.5948 122.331C36.0252 122.076 36.5264 121.773 37.0984 121.421C37.6328 121.098 38.1439 120.824 38.6319 120.597C39.1104 120.366 39.5831 120.232 40.0501 120.197C40.5217 120.151 41.0218 120.256 41.5504 120.511C42.1751 120.811 42.62 121.215 42.8851 121.722C43.1503 122.228 43.2588 122.79 43.2107 123.406C43.1626 124.022 42.9904 124.637 42.6942 125.253C42.4212 125.82 42.146 126.243 41.8687 126.524C41.596 126.795 41.3394 127.021 41.0987 127.201C40.8624 127.348 40.7164 127.479 40.6609 127.594C40.6146 127.69 40.6327 127.788 40.7153 127.887C40.8025 127.976 40.9449 128.086 41.1424 128.217L40.9828 128.548C40.771 128.423 40.5161 128.288 40.2182 128.145C39.9249 127.992 39.5428 127.802 39.0719 127.575C38.596 127.334 37.9929 127.037 37.2625 126.686L37.4222 126.354C38.0557 126.612 38.6833 126.784 39.3048 126.87C39.9213 126.942 40.4808 126.874 40.9834 126.666C41.4907 126.449 41.8924 126.033 42.1886 125.417C42.3506 125.081 42.4387 124.751 42.453 124.426C42.4623 124.087 42.3813 123.776 42.2101 123.492C42.0293 123.204 41.7419 122.965 41.3479 122.775C40.9538 122.585 40.5639 122.51 40.1781 122.549C39.7922 122.588 39.3909 122.709 38.974 122.91C38.5572 123.112 38.1078 123.369 37.6258 123.682C37.12 123.995 36.6232 124.276 36.1355 124.527C35.6479 124.777 35.1588 124.933 34.6683 124.992C34.1728 125.038 33.656 124.931 33.1178 124.672C32.5219 124.385 32.106 124.007 31.8701 123.538C31.6245 123.065 31.5215 122.554 31.561 122.004C31.6052 121.445 31.7546 120.902 32.0091 120.373Z" fill="black"/>
<path d="M41.8394 103.971L42.1038 104.151C41.9203 104.439 41.8084 104.679 41.7679 104.871C41.7247 105.048 41.7643 105.217 41.8869 105.378C42.0007 105.533 42.2206 105.722 42.5467 105.944L49.1037 110.415C49.421 110.631 49.677 110.767 49.8717 110.822C50.0664 110.878 50.2382 110.853 50.3872 110.748C50.5423 110.634 50.7247 110.442 50.9346 110.172L51.199 110.352C51.0312 110.561 50.8301 110.837 50.5958 111.18C50.3526 111.518 50.1109 111.863 49.8705 112.216C49.6001 112.612 49.3521 112.985 49.1266 113.335C48.8923 113.679 48.7088 113.967 48.5762 114.199L48.3118 114.019C48.4925 113.716 48.6044 113.476 48.6477 113.299C48.697 113.113 48.6573 112.944 48.5287 112.792C48.4061 112.631 48.1862 112.442 47.8689 112.226L41.3119 107.755C40.9858 107.533 40.7298 107.397 40.5439 107.348C40.3553 107.284 40.1834 107.309 40.0284 107.423C39.8706 107.522 39.6881 107.713 39.481 107.998L39.2166 107.818C39.3756 107.604 39.5767 107.328 39.8199 106.99C40.063 106.652 40.3198 106.285 40.5902 105.888C40.8305 105.536 41.0635 105.185 41.289 104.835C41.5145 104.485 41.698 104.197 41.8394 103.971Z" fill="black"/>
<path d="M54.0972 89.4624L54.3318 89.6801C54.1231 89.9521 54.0039 90.198 53.9744 90.418C53.9371 90.6308 53.9944 90.8513 54.1464 91.0796C54.2978 91.2928 54.5494 91.5626 54.9012 91.8891L61.5984 98.1032C61.5253 98.1663 61.4488 98.2409 61.369 98.3269C61.2965 98.4051 61.2206 98.4947 61.1413 98.5958L49.6347 97.2828L54.7016 101.984C55.0769 102.332 55.3919 102.581 55.6465 102.73C55.8934 102.872 56.1362 102.908 56.3752 102.839C56.6135 102.754 56.9007 102.562 57.2367 102.263L57.4713 102.481C57.3178 102.615 57.1322 102.799 56.9146 103.034C56.6891 103.261 56.4784 103.48 56.2825 103.691C56.1084 103.879 55.9346 104.074 55.761 104.277C55.5869 104.464 55.4496 104.628 55.3492 104.768L55.1146 104.55C55.3227 104.263 55.4418 104.017 55.4719 103.812C55.5092 103.599 55.4483 103.383 55.2891 103.162C55.1371 102.934 54.8891 102.66 54.5451 102.341L49.1264 97.3132C48.8371 97.0447 48.6042 96.8723 48.4277 96.7959C48.2507 96.7044 48.0771 96.7033 47.9068 96.7927C47.736 96.867 47.527 97.0296 47.2797 97.2804L47.0452 97.0627C47.1691 96.9449 47.322 96.7957 47.5039 96.6153C47.6931 96.4271 47.8748 96.2391 48.0489 96.0515C48.2158 95.8716 48.3751 95.6921 48.5269 95.5128C48.6787 95.3335 48.8124 95.1738 48.9279 95.0336L58.8616 96.0658L54.7448 92.246C54.3616 91.8905 54.0466 91.6418 53.7998 91.5001C53.553 91.3584 53.3101 91.3222 53.0712 91.3915C52.8322 91.4608 52.545 91.6527 52.2096 91.9672L51.975 91.7495C52.1207 91.6082 52.3063 91.4239 52.5318 91.1966C52.7645 90.9615 52.9752 90.7422 53.1638 90.5389C53.3452 90.3435 53.519 90.1483 53.6853 89.9533C53.8589 89.7506 53.9962 89.587 54.0972 89.4624Z" fill="black"/>
<path d="M76.3424 72.7244L76.5024 73.0015C76.1936 73.1921 75.9748 73.3677 75.8459 73.5283C75.7208 73.6744 75.6786 73.8466 75.7192 74.0449C75.7544 74.2339 75.8707 74.4993 76.068 74.8411L80.1 81.8248C80.2707 82.1204 80.4245 82.3334 80.5613 82.4637C80.7021 82.5795 80.8551 82.6205 81.0203 82.5867C81.1855 82.5529 81.3975 82.4613 81.6561 82.312L82.4459 81.856C82.8062 81.648 83.0829 81.402 83.2762 81.118C83.4786 80.8287 83.6095 80.5006 83.6687 80.1339C83.7279 79.7671 83.7182 79.3663 83.6395 78.9314C83.5555 78.4872 83.4079 78.0182 83.1967 77.5243L83.5154 77.3403C83.6636 77.6611 83.8791 78.0664 84.1618 78.5559C84.2791 78.7592 84.4517 79.0475 84.6796 79.4209C84.9168 79.789 85.1712 80.1656 85.4428 80.5507C84.961 80.8042 84.4245 81.1017 83.8333 81.443C83.2368 81.7751 82.7075 82.0745 82.2457 82.3411C82.024 82.4691 81.7422 82.6318 81.4004 82.8291C81.0586 83.0265 80.6872 83.2471 80.2861 83.491C79.8888 83.7203 79.485 83.9596 79.0747 84.2088C78.6682 84.4435 78.2829 84.6721 77.9188 84.8947L77.7588 84.6176C78.0529 84.4231 78.2579 84.2555 78.3737 84.1147C78.4988 83.9686 78.5364 83.7991 78.4866 83.6062C78.446 83.4079 78.3297 83.1425 78.1377 82.8099L74.1697 75.9371C73.9724 75.5953 73.8006 75.3619 73.6546 75.2369C73.5124 75.0973 73.3468 75.0451 73.1577 75.0803C72.9726 75.101 72.7249 75.1947 72.4148 75.3615L72.2548 75.0844C72.491 74.9603 72.792 74.7988 73.1576 74.6001C73.5232 74.4013 73.9138 74.1819 74.3295 73.9419C74.7082 73.7233 75.0797 73.5026 75.4439 73.2801C75.808 73.0575 76.1075 72.8723 76.3424 72.7244Z" fill="black"/>
<path d="M90.861 65.7163L98.1453 73.6344C98.4345 73.9334 98.6908 74.1193 98.9142 74.1921C99.1436 74.251 99.3347 74.2562 99.4875 74.2077L99.6044 74.5056C99.3385 74.587 99.0218 74.6999 98.6544 74.844C98.2931 74.9744 97.9237 75.1136 97.5464 75.2617C97.1095 75.4332 96.7044 75.5979 96.331 75.7559C95.9536 75.904 95.6497 76.0348 95.4192 76.1481L95.3023 75.8503C95.8009 75.6317 96.0905 75.4206 96.171 75.2171C96.2477 75.0037 96.0874 74.6827 95.69 74.2543L90.2921 68.2084L90.4316 67.7756L90.4744 74.8918C90.4806 75.4623 90.5262 75.9143 90.6112 76.2476C90.6962 76.5809 90.8184 76.8194 90.9779 76.9631C91.1374 77.1067 91.337 77.1773 91.5767 77.1749C91.8125 77.1626 92.0863 77.101 92.398 76.9901L92.5149 77.288C92.1894 77.3928 91.8777 77.5037 91.5798 77.6206C91.278 77.7276 90.9782 77.8396 90.6803 77.9565C90.4618 78.0422 90.2553 78.129 90.0606 78.2169C89.8719 78.2909 89.707 78.3671 89.5659 78.4454L89.449 78.1475C89.6479 78.0121 89.8108 77.7993 89.9374 77.5089C90.074 77.2147 90.1403 76.7704 90.1363 76.1762L90.0865 66.0203C90.2095 65.9835 90.3406 65.9378 90.4796 65.8832C90.6186 65.8287 90.7457 65.773 90.861 65.7163ZM94.6294 71.5079L94.7463 71.8058L90.3079 73.5478L90.3399 73.1914L94.6294 71.5079Z" fill="black"/>
<path d="M113.319 59.415L113.39 59.727C113.198 59.8473 113.006 60.0607 112.814 60.3672C112.621 60.6738 112.505 61.1216 112.464 61.7107L111.716 71.4493C111.654 71.4635 111.585 71.4738 111.51 71.48C111.448 71.4942 111.38 71.5097 111.307 71.5263C111.245 71.5405 111.177 71.5559 111.104 71.5726C111.044 71.5972 110.983 71.6166 110.921 71.6309L105.357 62.496C105.161 62.1685 104.973 61.9654 104.791 61.8866C104.619 61.8055 104.454 61.7775 104.296 61.8027L104.224 61.4907C104.476 61.4441 104.78 61.3857 105.136 61.3154C105.503 61.2427 105.863 61.166 106.216 61.0853C106.653 60.9856 107.063 60.8867 107.445 60.7885C107.827 60.6903 108.137 60.6086 108.374 60.5437L108.445 60.8556C108.125 60.9396 107.884 61.033 107.721 61.1357C107.556 61.2281 107.48 61.3714 107.491 61.5657C107.511 61.7472 107.627 62.0161 107.839 62.3724L111.663 68.77L111.465 69.3404L111.987 63.0012C112.055 62.2418 112.032 61.6617 111.918 61.2609C111.815 60.8577 111.63 60.599 111.364 60.4849C111.094 60.3603 110.746 60.3415 110.317 60.4284L110.246 60.1164C110.591 60.0485 110.916 59.9853 111.22 59.9269C111.534 59.8661 111.847 59.8001 112.159 59.7289C112.399 59.6743 112.611 59.6204 112.795 59.5673C112.991 59.5118 113.165 59.461 113.319 59.415ZM102.275 61.9357L102.346 62.2477C102.111 62.3231 101.96 62.4287 101.893 62.5644C101.825 62.7002 101.818 62.8605 101.871 63.0453C101.933 63.2173 102.034 63.4238 102.177 63.6648L106.18 70.202L105.888 70.7937L106.53 64.1154L106.857 64.4676L106.101 72.731C106.038 72.7453 105.97 72.7555 105.894 72.7617C105.832 72.7759 105.764 72.7914 105.692 72.808C105.629 72.8222 105.562 72.8377 105.489 72.8543C105.429 72.8789 105.368 72.8984 105.305 72.9126L99.6411 63.9154C99.4181 63.5615 99.1923 63.3395 98.9639 63.2494C98.7458 63.1569 98.5576 63.1233 98.3993 63.1485L98.3281 62.8365C98.6008 62.7852 98.9308 62.7208 99.3179 62.6434C99.7051 62.566 100.081 62.4857 100.445 62.4027C100.829 62.3148 101.182 62.2289 101.502 62.145C101.822 62.061 102.079 61.9912 102.275 61.9357Z" fill="black"/>
<path d="M136.306 58.4382C136.71 58.4685 137.037 58.5304 137.287 58.624C137.537 58.707 137.754 58.8088 137.938 58.9295C138.081 59.0258 138.211 59.1425 138.329 59.2797C138.447 59.4169 138.538 59.5628 138.601 59.7173C138.664 59.8717 138.689 60.0394 138.676 60.2202C138.652 60.5287 138.522 60.765 138.286 60.9291C138.049 61.0932 137.781 61.164 137.483 61.1417C137.207 61.121 136.968 61.0229 136.767 60.8474C136.577 60.6727 136.493 60.4364 136.516 60.1386C136.536 59.8727 136.638 59.6504 136.822 59.4716C137.018 59.2831 137.262 59.173 137.553 59.1413C137.486 59.04 137.353 58.9499 137.156 58.8709C136.97 58.7821 136.744 58.7277 136.478 58.7078C135.925 58.6664 135.45 58.8019 135.052 59.1144C134.654 59.4268 134.43 59.9181 134.38 60.5883C134.361 60.8435 134.383 61.1233 134.446 61.4275C134.52 61.7219 134.684 62.023 134.939 62.3309C135.123 62.3019 135.296 62.2881 135.456 62.2894C135.628 62.2809 135.767 62.2806 135.873 62.2886C136.065 62.3029 136.211 62.3513 136.312 62.4338C136.413 62.5056 136.459 62.6053 136.45 62.7329C136.442 62.8393 136.393 62.9159 136.304 62.9627C136.215 63.0095 136.107 63.0281 135.979 63.0185C135.787 63.0042 135.594 62.9416 135.399 62.8307C135.204 62.7198 135.051 62.6281 134.939 62.5555C134.379 62.7382 133.914 63.0189 133.544 63.3976C133.184 63.7771 132.978 64.3126 132.926 65.0039C132.873 65.7166 133.014 66.3262 133.351 66.8328C133.698 67.3401 134.202 67.7416 134.865 68.0373C135.528 68.3223 136.306 68.4983 137.2 68.5653C137.742 68.6059 138.273 68.5869 138.793 68.5082C139.323 68.4196 139.805 68.2685 140.238 68.0549C140.672 67.8414 141.023 67.5736 141.293 67.2515C141.564 66.9188 141.717 66.5238 141.751 66.0664C141.765 65.8856 141.75 65.6545 141.707 65.3732C141.664 65.0918 141.546 64.8049 141.354 64.5124C141.162 64.2199 140.849 63.9718 140.415 63.7682L140.554 63.6341C141.178 63.8734 141.625 64.2599 141.895 64.7936C142.176 65.3174 142.293 65.9038 142.244 66.5526C142.192 67.2547 141.925 67.8872 141.444 68.4502C140.964 69.0025 140.312 69.4243 139.488 69.7155C138.675 70.0075 137.731 70.1133 136.657 70.0328C135.838 69.9714 135.089 69.8244 134.411 69.5918C133.744 69.3599 133.168 69.0547 132.683 68.676C132.209 68.2876 131.853 67.8383 131.613 67.3283C131.373 66.8183 131.276 66.2548 131.322 65.6379C131.366 65.0528 131.52 64.5617 131.786 64.1644C132.051 63.7671 132.369 63.4486 132.74 63.209C133.111 62.9587 133.478 62.7723 133.84 62.6497C134.203 62.5271 134.497 62.4476 134.725 62.4111C134.395 62.2473 134.104 62.0597 133.852 61.8484C133.602 61.6263 133.411 61.3821 133.282 61.1156C133.163 60.8394 133.115 60.5523 133.138 60.2545C133.161 59.9354 133.257 59.6591 133.424 59.4256C133.603 59.1823 133.837 58.9805 134.127 58.8204C134.418 58.6603 134.747 58.5513 135.115 58.4933C135.483 58.4247 135.881 58.4063 136.306 58.4382ZM142.435 58.6568C143.148 58.7102 143.723 58.9512 144.162 59.3799C144.601 59.7979 144.794 60.3579 144.742 61.0599C144.705 61.5492 144.562 61.9557 144.313 62.2793C144.065 62.603 143.729 62.8666 143.308 63.0704C142.897 63.2642 142.421 63.4104 141.879 63.5088C141.682 63.5689 141.442 63.6312 141.159 63.6955C140.876 63.7599 140.571 63.828 140.245 63.8998C139.93 63.9618 139.626 64.0246 139.332 64.0881C139.049 64.1525 138.809 64.2147 138.612 64.2749C137.93 64.3948 137.383 64.5517 136.973 64.7456C136.563 64.9289 136.344 65.212 136.315 65.5949C136.295 65.8608 136.363 66.1012 136.518 66.316C136.674 66.5203 136.876 66.6798 137.124 66.7947C137.372 66.9095 137.618 66.9761 137.863 66.9945C137.938 67 138.028 67.0015 138.135 66.9988C138.243 66.9855 138.341 66.9661 138.429 66.9406C138.527 66.9158 138.594 66.8781 138.63 66.8273C138.4 66.7459 138.217 66.6199 138.08 66.4492C137.943 66.2785 137.885 66.0655 137.904 65.8102C137.927 65.5017 138.056 65.2708 138.293 65.1173C138.529 64.9639 138.806 64.8991 139.125 64.923C139.466 64.9485 139.725 65.0589 139.903 65.254C140.091 65.45 140.174 65.7022 140.151 66.0107C140.127 66.3298 140.006 66.5881 139.788 66.7857C139.57 66.9833 139.292 67.1229 138.954 67.2046C138.628 67.2764 138.279 67.2984 137.907 67.2705C137.524 67.2418 137.167 67.1455 136.837 66.9818C136.508 66.8073 136.248 66.5686 136.056 66.2654C135.865 65.9623 135.787 65.5767 135.822 65.1087C135.859 64.6194 136.013 64.2084 136.284 63.8757C136.555 63.543 136.928 63.2768 137.403 63.0771C137.889 62.8675 138.462 62.7126 139.122 62.6123C139.383 62.557 139.681 62.4991 140.018 62.4387C140.364 62.3791 140.717 62.3146 141.075 62.2452C141.434 62.1651 141.772 62.0782 142.089 61.9843C142.785 61.8332 143.313 61.6481 143.671 61.4289C144.03 61.2098 144.222 60.9247 144.249 60.5737C144.271 60.2759 144.205 60.0089 144.052 59.7728C143.899 59.5366 143.688 59.3444 143.421 59.196C143.154 59.0477 142.861 58.9615 142.542 58.9376C142.436 58.9296 142.339 58.9331 142.253 58.948C142.177 58.9531 142.123 58.9703 142.088 58.9999C142.294 59.1115 142.443 59.2564 142.537 59.4346C142.641 59.6136 142.687 59.7935 142.673 59.9743C142.652 60.2615 142.523 60.4818 142.287 60.6353C142.061 60.7895 141.789 60.8547 141.47 60.8308C141.161 60.8076 140.902 60.7026 140.691 60.5157C140.491 60.3296 140.403 60.0823 140.426 59.7738C140.447 59.4972 140.549 59.2696 140.734 59.0909C140.918 58.9122 141.157 58.791 141.451 58.7275C141.756 58.654 142.084 58.6305 142.435 58.6568Z" fill="black"/>
<path d="M174.463 67.4649C174.244 67.9061 174.039 68.3412 173.848 68.7703C173.67 69.1934 173.537 69.5191 173.447 69.7475C173.358 69.9758 173.279 70.1913 173.211 70.3938C173.143 70.5962 173.084 70.7739 173.036 70.9267L172.693 70.7923C172.866 69.9434 172.941 69.2566 172.918 68.7318C172.898 68.1971 172.764 67.7662 172.514 67.439C172.274 67.1157 171.891 66.8508 171.365 66.6442L170.888 66.4572L167.556 74.9468C167.397 75.3539 167.313 75.6703 167.304 75.8962C167.306 76.126 167.407 76.3204 167.608 76.4796C167.813 76.6288 168.132 76.7941 168.565 76.9755L168.448 77.2733C168.158 77.1366 167.775 76.9747 167.298 76.7876C166.825 76.5906 166.341 76.3947 165.844 76.1999C165.328 75.9972 164.839 75.8112 164.379 75.6419C163.932 75.4665 163.566 75.3342 163.28 75.245L163.397 74.9471C163.828 75.1047 164.169 75.1986 164.421 75.2286C164.676 75.2488 164.883 75.1751 165.04 75.0077C165.198 74.8403 165.356 74.553 165.516 74.1459L168.848 65.6564L168.356 65.4635C167.84 65.2608 167.379 65.1945 166.974 65.2645C166.568 65.3345 166.176 65.5589 165.798 65.9377C165.424 66.3066 165.017 66.8628 164.576 67.6065L164.234 67.4721C164.312 67.3309 164.39 67.1611 164.468 66.9625C164.556 66.7678 164.645 66.5563 164.734 66.3279C164.824 66.0995 164.943 65.7679 165.09 65.3332C165.252 64.8924 165.402 64.4358 165.542 63.9635C165.975 64.1449 166.453 64.3438 166.975 64.5603C167.497 64.7768 168.022 64.9883 168.548 65.1948C169.074 65.4013 169.556 65.5904 169.992 65.7618C170.419 65.9294 170.896 66.1164 171.422 66.323C171.949 66.5295 172.477 66.7311 173.007 66.9277C173.537 67.1243 174.023 67.3034 174.463 67.4649Z" fill="black"/>
<path d="M185.066 72.9048L183.417 83.5368C183.364 83.9493 183.378 84.2656 183.461 84.4856C183.558 84.7017 183.673 84.8543 183.806 84.9436L183.646 85.2207C183.416 85.0636 183.131 84.8863 182.789 84.689C182.462 84.4877 182.123 84.2858 181.772 84.0831C181.365 83.8485 180.984 83.6344 180.627 83.441C180.276 83.2383 179.985 83.0822 179.752 82.9727L179.912 82.6956C180.394 82.9491 180.74 83.0439 180.949 82.98C181.164 82.9069 181.315 82.5814 181.402 82.0036L182.763 74.0138L183.188 73.853L177.651 78.3234C177.209 78.684 176.884 79.0014 176.677 79.2756C176.469 79.5499 176.359 79.7942 176.346 80.0085C176.333 80.2227 176.402 80.4228 176.554 80.6087C176.71 80.7854 176.929 80.961 177.21 81.1356L177.05 81.4127C176.765 81.2236 176.484 81.049 176.207 80.889C175.935 80.7197 175.661 80.5551 175.384 80.3951C175.181 80.2778 174.984 80.1704 174.794 80.073C174.618 79.9717 174.456 79.8902 174.307 79.8287L174.467 79.5516C174.697 79.6227 174.965 79.6173 175.271 79.5353C175.586 79.4586 175.974 79.2335 176.436 78.8598L184.346 72.4888C184.451 72.562 184.569 72.636 184.698 72.7106C184.827 72.7853 184.95 72.85 185.066 72.9048ZM182.888 79.4621L182.728 79.7392L178.598 77.3552L178.897 77.1581L182.888 79.4621Z" fill="black"/>
<path d="M197.568 81.409L197.359 81.6717C196.967 81.3591 196.691 81.2005 196.531 81.1957C196.371 81.191 196.276 81.3269 196.247 81.6035L195.367 92.6894C195.332 93.0576 195.332 93.3233 195.365 93.4865C195.414 93.6481 195.519 93.807 195.681 93.9633L195.471 94.226C195.328 94.098 195.118 93.9167 194.841 93.6823C194.579 93.4461 194.302 93.2116 194.01 92.9789C193.643 92.6863 193.27 92.402 192.889 92.126C192.516 91.8417 192.234 91.6306 192.044 91.4926L192.253 91.2299C192.637 91.5359 192.907 91.7104 193.064 91.7534C193.227 91.7882 193.32 91.6714 193.343 91.4032L194.258 80.2222C194.284 79.8474 194.28 79.5783 194.247 79.4151C194.221 79.2586 194.12 79.103 193.944 78.9483L194.153 78.6856C194.297 78.8137 194.508 79.0024 194.786 79.2519C195.071 79.493 195.364 79.7332 195.664 79.9727C196.023 80.2586 196.372 80.5305 196.713 80.7881C197.059 81.0375 197.345 81.2444 197.568 81.409ZM194.387 86.0142C194.387 86.0142 194.372 86.05 194.342 86.1217C194.319 86.185 194.292 86.2526 194.262 86.3242C194.247 86.3942 194.24 86.4292 194.24 86.4292L191.35 87.2558C190.681 87.445 190.213 87.6723 189.947 87.9376C189.681 88.2029 189.584 88.4871 189.656 88.7901C189.743 89.0915 189.959 89.3935 190.304 89.6962L190.105 89.9464C189.995 89.8449 189.852 89.7244 189.677 89.5847C189.517 89.4434 189.345 89.2995 189.162 89.1532C188.993 89.0052 188.826 88.8647 188.659 88.7317C188.492 88.5987 188.359 88.4923 188.258 88.4125C188.025 88.2263 187.809 88.0608 187.611 87.9162C187.419 87.7633 187.249 87.6419 187.103 87.5522L187.302 87.302C187.646 87.4531 188.048 87.5216 188.509 87.5075C188.971 87.4935 189.5 87.4036 190.096 87.2377L194.387 86.0142ZM202.072 85.0003L201.872 85.2505C201.552 85.1044 201.173 85.0409 200.735 85.0599C200.297 85.0789 199.834 85.1537 199.348 85.2844L195.087 86.4704C195.087 86.4704 195.11 86.407 195.157 86.2804C195.218 86.152 195.249 86.0878 195.249 86.0878L198.074 85.2914C198.722 85.1121 199.181 84.9123 199.452 84.692C199.73 84.4634 199.843 84.2191 199.791 83.9594C199.739 83.6996 199.549 83.425 199.22 83.1356L199.42 82.8854C199.571 83.0201 199.736 83.1648 199.912 83.3195C200.096 83.4658 200.272 83.6129 200.44 83.7609C200.616 83.9006 200.774 84.027 200.916 84.14C201.149 84.3262 201.365 84.4917 201.564 84.6363C201.762 84.7809 201.931 84.9023 202.072 85.0003Z" fill="black"/>
<path d="M211.525 112.881L211.789 112.7C212.005 112.979 212.187 113.171 212.336 113.276C212.492 113.39 212.663 113.415 212.852 113.351C213.047 113.295 213.303 113.159 213.62 112.943L220.177 108.473C220.503 108.25 220.723 108.062 220.837 107.907C220.965 107.754 221.005 107.585 220.956 107.399C220.921 107.216 220.809 106.976 220.62 106.68L220.884 106.499C221.038 106.743 221.23 107.045 221.462 107.403C221.693 107.762 221.929 108.117 222.17 108.47C222.434 108.857 222.685 109.216 222.922 109.545C223.165 109.882 223.36 110.15 223.507 110.346L223.243 110.527C223.042 110.251 222.859 110.059 222.695 109.951C222.546 109.846 222.374 109.821 222.18 109.876C221.994 109.926 221.738 110.061 221.412 110.284L214.855 114.754C214.538 114.971 214.318 115.159 214.195 115.32C214.072 115.481 214.033 115.65 214.076 115.827C214.125 116.013 214.237 116.253 214.412 116.547L214.148 116.728C214.027 116.513 213.849 116.234 213.615 115.89C213.396 115.549 213.154 115.185 212.889 114.797C212.649 114.444 212.404 114.095 212.155 113.748C211.915 113.396 211.705 113.107 211.525 112.881ZM207.721 107.302L207.986 107.122C208.201 107.4 208.384 107.592 208.533 107.697C208.688 107.811 208.86 107.836 209.049 107.772C209.243 107.717 209.499 107.581 209.816 107.364L216.374 102.894C216.7 102.672 216.92 102.483 217.033 102.328C217.162 102.176 217.202 102.007 217.152 101.821C217.118 101.638 217.006 101.398 216.816 101.101L217.081 100.921C217.222 101.147 217.406 101.435 217.631 101.785C217.857 102.134 218.105 102.508 218.375 102.904C218.615 103.257 218.857 103.602 219.1 103.94C219.343 104.277 219.545 104.553 219.704 104.768L219.439 104.948C219.238 104.672 219.056 104.48 218.892 104.372C218.743 104.267 218.571 104.242 218.376 104.298C218.19 104.347 217.934 104.483 217.608 104.705L211.051 109.176C210.734 109.392 210.514 109.581 210.391 109.742C210.269 109.903 210.229 110.072 210.272 110.249C210.322 110.435 210.434 110.675 210.608 110.969L210.344 111.149C210.211 110.916 210.028 110.628 209.794 110.285C209.568 109.935 209.335 109.584 209.095 109.231C208.824 108.835 208.568 108.468 208.324 108.13C208.09 107.786 207.889 107.51 207.721 107.302ZM213.728 106.285L213.993 106.105L217.553 111.327L217.288 111.507L213.728 106.285Z" fill="black"/>
<path d="M228.626 119.541C229.098 120.521 229.305 121.481 229.248 122.42C229.192 123.359 228.871 124.218 228.287 124.996C227.717 125.78 226.88 126.438 225.775 126.97C224.698 127.488 223.655 127.73 222.644 127.696C221.637 127.672 220.728 127.394 219.915 126.862C219.107 126.339 218.472 125.597 218.009 124.636C217.537 123.656 217.329 122.696 217.386 121.757C217.443 120.818 217.761 119.955 218.341 119.167C218.925 118.388 219.764 117.735 220.86 117.208C221.936 116.689 222.98 116.447 223.991 116.481C225.002 116.515 225.911 116.794 226.719 117.316C227.527 117.838 228.163 118.58 228.626 119.541ZM228.338 119.609C228.065 119.042 227.611 118.651 226.975 118.436C226.343 118.231 225.592 118.196 224.722 118.331C223.852 118.466 222.917 118.774 221.917 119.256C220.899 119.746 220.072 120.304 219.438 120.929C218.813 121.55 218.401 122.18 218.2 122.821C218.01 123.458 218.042 124.04 218.296 124.569C218.569 125.136 219.021 125.522 219.653 125.727C220.289 125.942 221.042 125.981 221.913 125.846C222.792 125.707 223.727 125.399 224.717 124.922C225.745 124.427 226.572 123.869 227.197 123.248C227.821 122.628 228.229 121.999 228.42 121.363C228.625 120.732 228.598 120.147 228.338 119.609Z" fill="black"/>
<path d="M236.008 139.954L235.702 140.049C235.571 139.732 235.418 139.506 235.242 139.37C235.08 139.242 234.861 139.186 234.588 139.204C234.324 139.218 233.963 139.296 233.505 139.437L229.269 140.744C228.587 140.954 227.961 141.097 227.392 141.172C226.827 141.257 226.308 141.239 225.835 141.116C225.328 140.994 224.864 140.718 224.441 140.29C224.033 139.87 223.716 139.297 223.493 138.574C223.342 138.084 223.249 137.583 223.213 137.069C223.181 136.566 223.263 136.089 223.458 135.638C223.626 135.24 223.849 134.897 224.129 134.61C224.412 134.333 224.779 134.092 225.229 133.886C225.689 133.677 226.25 133.47 226.913 133.266L231.714 131.785C232.091 131.669 232.356 131.553 232.511 131.439C232.679 131.331 232.766 131.181 232.774 130.989C232.795 130.804 232.759 130.542 232.665 130.202L232.971 130.108C233.039 130.366 233.13 130.695 233.242 131.096C233.355 131.497 233.482 131.926 233.623 132.385C233.752 132.803 233.884 133.214 234.02 133.619C234.156 134.023 234.27 134.356 234.362 134.618L234.056 134.713C233.939 134.369 233.817 134.117 233.689 133.955C233.574 133.801 233.416 133.721 233.214 133.717C233.021 133.709 232.737 133.763 232.36 133.88L226.825 135.587C226.315 135.744 225.861 135.918 225.462 136.108C225.076 136.305 224.759 136.526 224.511 136.77C224.265 137.024 224.11 137.317 224.046 137.65C223.984 137.993 224.022 138.388 224.16 138.837C224.39 139.581 224.736 140.105 225.198 140.409C225.66 140.713 226.217 140.854 226.869 140.831C227.52 140.809 228.228 140.68 228.993 140.444L233.274 139.123C233.773 138.969 234.144 138.816 234.387 138.663C234.63 138.509 234.78 138.307 234.836 138.055C234.896 137.814 234.878 137.484 234.783 137.067L235.089 136.973C235.138 137.17 235.205 137.422 235.289 137.731C235.376 138.051 235.461 138.343 235.543 138.608C235.621 138.862 235.703 139.111 235.789 139.352C235.878 139.604 235.951 139.804 236.008 139.954Z" fill="black"/>
<path d="M238.21 150.263C238.299 150.853 238.305 151.316 238.226 151.652C238.147 151.987 238.051 152.282 237.938 152.536C237.884 152.674 237.841 152.783 237.81 152.863C237.791 152.952 237.787 153.034 237.798 153.108C237.814 153.213 237.883 153.278 238.005 153.303C238.129 153.338 238.31 153.354 238.546 153.351L238.601 153.715C238.399 153.734 238.165 153.754 237.898 153.772C237.633 153.801 237.278 153.844 236.833 153.9C236.401 153.966 235.826 154.052 235.109 154.16L235.054 153.796C235.587 153.684 236.086 153.485 236.55 153.199C237.015 152.924 237.377 152.572 237.637 152.145C237.908 151.727 238 151.227 237.912 150.647C237.835 150.13 237.616 149.721 237.258 149.419C236.901 149.128 236.465 149.021 235.948 149.099C235.505 149.166 235.147 149.333 234.874 149.6C234.613 149.866 234.369 150.221 234.145 150.665C233.933 151.118 233.689 151.65 233.415 152.264C233.155 152.831 232.888 153.346 232.612 153.808C232.347 154.269 232.032 154.646 231.666 154.938C231.302 155.241 230.83 155.436 230.25 155.524C229.564 155.627 228.969 155.544 228.465 155.275C227.96 155.006 227.554 154.603 227.247 154.067C226.94 153.531 226.735 152.925 226.633 152.25C226.54 151.628 226.528 151.123 226.599 150.734C226.672 150.357 226.757 150.026 226.854 149.741C226.967 149.487 227.013 149.297 226.994 149.17C226.978 149.065 226.908 148.994 226.785 148.959C226.662 148.934 226.483 148.924 226.246 148.927L226.191 148.563C226.437 148.547 226.723 148.515 227.05 148.466C227.379 148.427 227.801 148.369 228.318 148.291C228.847 148.222 229.512 148.127 230.314 148.006L230.369 148.37C229.7 148.514 229.085 148.725 228.523 149.004C227.973 149.292 227.549 149.664 227.251 150.118C226.954 150.584 226.856 151.154 226.958 151.829C227.014 152.198 227.127 152.521 227.298 152.797C227.482 153.082 227.724 153.294 228.025 153.432C228.337 153.568 228.709 153.604 229.141 153.539C229.574 153.474 229.939 153.316 230.235 153.066C230.532 152.817 230.796 152.491 231.027 152.09C231.257 151.688 231.484 151.222 231.706 150.693C231.948 150.149 232.199 149.637 232.461 149.155C232.723 148.673 233.04 148.27 233.411 147.944C233.795 147.627 234.282 147.424 234.873 147.335C235.527 147.237 236.083 147.315 236.542 147.569C237.012 147.822 237.385 148.186 237.662 148.662C237.94 149.149 238.123 149.682 238.21 150.263Z" fill="black"/>
<path d="M239.328 171.064C238.891 171.022 238.464 170.99 238.048 170.968C237.643 170.958 237.333 170.952 237.12 170.952C236.917 170.952 236.72 170.958 236.528 170.968C236.347 170.979 236.192 170.99 236.064 171V170.632C236.8 170.547 237.376 170.408 237.792 170.216C238.219 170.024 238.517 169.763 238.688 169.432C238.869 169.112 238.96 168.691 238.96 168.168V167.288C238.96 166.968 238.933 166.723 238.88 166.552C238.827 166.382 238.715 166.264 238.544 166.2C238.373 166.147 238.112 166.12 237.76 166.12H229.568C229.227 166.12 228.965 166.147 228.784 166.2C228.613 166.264 228.501 166.382 228.448 166.552C228.395 166.723 228.368 166.968 228.368 167.288V168.2C228.368 168.744 228.469 169.198 228.672 169.56C228.875 169.934 229.205 170.232 229.664 170.456C230.133 170.68 230.773 170.846 231.584 170.952V171.32C231.253 171.288 230.827 171.272 230.304 171.272C230.08 171.272 229.755 171.278 229.328 171.288C228.901 171.31 228.459 171.342 228 171.384C228.021 170.84 228.032 170.227 228.032 169.544C228.043 168.862 228.048 168.254 228.048 167.72C228.048 167.475 228.048 167.15 228.048 166.744C228.048 166.35 228.043 165.918 228.032 165.448C228.032 164.99 228.027 164.52 228.016 164.04C228.016 163.571 228.011 163.123 228 162.696H228.32C228.341 163.048 228.384 163.31 228.448 163.48C228.512 163.662 228.64 163.779 228.832 163.832C229.024 163.896 229.312 163.928 229.696 163.928H237.632C238.027 163.928 238.315 163.896 238.496 163.832C238.688 163.779 238.816 163.662 238.88 163.48C238.955 163.31 238.997 163.048 239.008 162.696H239.328C239.317 163.123 239.307 163.571 239.296 164.04C239.296 164.52 239.291 164.99 239.28 165.448C239.28 165.918 239.28 166.35 239.28 166.744C239.28 167.15 239.28 167.475 239.28 167.72C239.28 168.211 239.28 168.766 239.28 169.384C239.291 170.014 239.307 170.574 239.328 171.064ZM233.856 168.488C233.856 168.488 233.803 168.488 233.696 168.488C233.589 168.488 233.536 168.488 233.536 168.488V165.64C233.536 165.64 233.589 165.64 233.696 165.64C233.803 165.64 233.856 165.64 233.856 165.64V168.488ZM235.968 168.952C235.36 168.91 234.896 168.888 234.576 168.888C234.256 168.899 233.963 168.904 233.696 168.904C233.429 168.904 233.136 168.91 232.816 168.92C232.496 168.931 232.032 168.958 231.424 169V168.632C231.787 168.579 232.128 168.494 232.448 168.376C232.779 168.27 233.04 168.094 233.232 167.848C233.435 167.614 233.536 167.272 233.536 166.824H233.856C233.856 167.155 233.925 167.422 234.064 167.624C234.203 167.838 234.379 168.008 234.592 168.136C234.816 168.264 235.045 168.36 235.28 168.424C235.525 168.499 235.755 168.552 235.968 168.584V168.952Z" fill="black"/>
<g clip-path="url(#clip0_10_7676)">
<path d="M82.0164 115.382C79.6373 119.828 73.9107 118.827 73.9107 118.827C73.9107 118.827 71.0146 112.789 73.3937 108.343C75.7727 103.897 82.9615 102.052 82.9615 102.052C82.9615 102.052 84.3954 110.936 82.0164 115.382ZM71.3806 116.96C72.8203 121.319 69.819 124.985 69.819 124.985C69.819 124.985 65.246 123.934 63.8063 119.576C62.3666 115.217 64.3108 108.684 64.3108 108.684C64.3108 108.684 69.9409 112.601 71.3806 116.96Z" fill="#FFCC66"/>
<path d="M78.698 128.632C75.1298 129.853 71.6609 125.894 71.6609 125.894C71.6609 125.894 72.0522 120.598 75.6204 119.377C79.1887 118.157 84.9923 121.183 84.9923 121.183C84.9923 121.183 82.2662 127.412 78.698 128.632ZM66.6857 128.293C68.5632 132.477 66.052 136.564 66.052 136.564C66.052 136.564 61.5312 136.109 59.5079 131.984C57.6304 127.8 58.7927 120.963 58.7927 120.963C58.7927 120.963 64.8083 124.109 66.6857 128.293ZM75.1843 139.082C71.8142 140.84 68.0398 137.415 68.0398 137.415C68.0398 137.415 67.9272 132.114 71.2312 130.177C74.6012 128.419 80.5783 130.553 80.5783 130.553C80.5783 130.553 78.5543 137.324 75.1843 139.082ZM64.2044 140.181C66.5857 144.369 64.2727 148.994 64.2727 148.994C64.2727 148.994 59.4463 149.072 57.277 145.005C54.8957 140.817 55.5679 133.559 55.5679 133.559C55.5679 133.559 61.8231 135.993 64.2044 140.181ZM73.8703 150.503C70.5526 152.857 66.3403 149.606 66.3403 149.606C66.3403 149.606 65.7377 143.885 68.9756 141.769C72.2934 139.415 78.5761 141.016 78.5761 141.016C78.5761 141.016 77.1881 148.15 73.8703 150.503ZM62.3699 154.277C65.5469 158.353 63.9222 163.936 63.9222 163.936C63.9222 163.936 58.9883 165.085 55.8113 161.01C52.6344 156.934 52.2604 148.655 52.2604 148.655C52.2604 148.655 59.3388 150.143 62.3699 154.277ZM74.3046 163.487C71.1712 166.795 66.2156 164.253 66.2156 164.253C66.2156 164.253 64.6851 158.286 67.8185 154.978C70.9518 151.67 77.9918 152.146 77.9918 152.146C77.9918 152.146 77.4379 160.179 74.3046 163.487ZM62.3359 170.532C66.0966 174.374 65.028 180.558 65.028 180.558C65.028 180.558 59.9206 182.599 56.3059 178.698C52.6911 174.797 51.3233 166.093 51.3233 166.093C51.3233 166.093 58.5752 166.69 62.3359 170.532ZM75.6776 178.563C72.8085 182.588 67.4013 180.637 67.4013 180.637C67.4013 180.637 65.0889 174.366 68.0241 170.52C70.8932 166.495 78.2525 166.021 78.2525 166.021C78.2525 166.021 78.5466 174.538 75.6776 178.563Z" fill="#FFCC66"/>
<path d="M74.3484 118.652C70.2016 126.477 67.8168 135.448 66.7177 144.727C66.2742 149.427 65.9766 154.069 66.1029 158.953C66.1632 163.657 66.4355 168.482 66.8537 173.249C67.2719 178.016 67.9021 182.904 68.6783 187.733C69.4544 192.563 70.3764 197.334 71.2985 202.105C72.3665 206.818 73.5005 211.71 74.5685 216.423C75.7824 221.078 77.0624 225.911 78.4882 230.687C76.6246 226.086 74.9068 221.427 73.547 216.831C72.1211 212.056 70.6952 207.28 69.4813 202.626C68.2014 197.792 67.2793 193.021 66.5032 188.192C65.7271 183.362 64.9509 178.533 64.4667 173.586C63.9824 168.64 63.856 163.757 63.8756 158.815C63.8951 153.873 64.3387 149.173 64.9282 144.414C65.6635 139.598 66.677 135.081 68.2603 130.748C69.7776 126.235 71.785 122.144 74.3484 118.652Z" fill="#FFCC66"/>
</g>
<path d="M128.02 137.145H133.052V200.024H128.02V137.145Z" fill="#4C889B"/>
<path d="M150.927 143.531C154.686 143.531 158.704 141.857 161.96 136.228L157.87 132.594C153.974 139.319 148.749 137.582 143.294 135.026L142.647 134.723C139.017 133.049 134.712 132.122 130.536 132.122V138.357C134.079 138.357 137.86 139.158 140.893 140.565L141.518 140.859C143.768 141.91 147.225 143.531 150.927 143.531ZM113.552 212.617C115.025 210.711 122.112 208.226 123.981 206.071C125.85 203.916 123.959 201.413 124.851 196.292C125.986 189.764 130.536 189.007 130.536 189.007C130.536 189.007 135.086 189.764 136.221 196.292C137.112 201.404 135.215 203.916 137.091 206.071C138.96 208.226 146.054 210.711 147.52 212.617C149.058 214.612 149.123 217.257 147.52 218.166C147.52 218.166 142.144 220.9 130.536 220.9C118.928 220.9 113.552 218.166 113.552 218.166C112.179 217.631 112.014 214.612 113.552 212.617Z" fill="#4C889B"/>
<path d="M133.03 145.428C133.03 145.865 133.382 148.064 131.363 148.59C129.594 149.044 128.013 148.082 128.013 145.375C128.013 143.148 128.186 142.115 128.186 142.115C128.186 142.115 133.03 144.092 133.03 145.428Z" fill="#335E68"/>
<path d="M136.516 138.651C136.516 134.563 133.842 123.474 130.536 123.474C127.23 123.474 124.556 134.563 124.556 138.651C124.556 142.739 127.23 146.061 130.536 146.061C133.842 146.061 136.516 142.747 136.516 138.651Z" fill="#4C889B"/>
<path d="M130.536 126.137C132.719 126.137 134.489 123.944 134.489 121.239C134.489 118.534 132.719 116.34 130.536 116.34C128.353 116.34 126.583 118.534 126.583 121.239C126.583 123.944 128.353 126.137 130.536 126.137Z" fill="#4C889B"/>
<path d="M159.437 138.063C161.62 138.063 163.39 135.87 163.39 133.164C163.39 130.459 161.62 128.266 159.437 128.266C157.254 128.266 155.484 130.459 155.484 133.164C155.484 135.87 157.254 138.063 159.437 138.063Z" fill="#4C889B"/>
<path d="M110.138 143.531C113.839 143.531 117.297 141.91 119.546 140.859L120.172 140.565C123.212 139.167 126.985 138.357 130.529 138.357V132.122C126.346 132.122 122.047 133.049 118.418 134.723L117.771 135.026C112.308 137.582 107.09 139.319 103.195 132.594L99.105 136.228C102.368 141.857 106.379 143.531 110.138 143.531Z" fill="#4C889B"/>
<path d="M127.036 193.469C126.001 194.439 126.123 196.158 126.18 196.417C126.324 197.04 126.827 197.414 127.309 197.637C128.559 198.207 129.983 198.073 131.183 197.387C132.053 196.889 133.813 195.366 133.634 193.932C133.339 191.572 128.078 192.489 127.036 193.469ZM132.642 215.378C127.294 216.883 121.674 216.126 117.088 214.193C115.169 213.383 115.859 212.51 115.967 212.403C116.894 211.459 118.073 210.809 119.331 210.684C121.616 210.462 123.428 211.557 125.62 212.368C128.107 213.285 130.744 213.588 133.325 213.249C133.691 213.205 134.094 213.16 134.403 213.419C135.603 214.416 132.642 215.378 132.642 215.378ZM129.925 121.408C129.537 121.622 129.091 121.747 128.689 121.568C128.121 121.319 127.798 120.517 127.855 119.778C127.963 118.433 129.645 116.608 130.78 117.311C132.283 118.246 130.946 120.838 129.925 121.408ZM126.331 135.845C127.345 137.341 129.616 137.119 130.744 133.672C131.506 131.339 131.276 128.702 131.168 127.892C130.895 125.719 129.343 125.211 128.265 127.072C126.001 130.964 125.67 134.874 126.331 135.845Z" fill="#81AFC1"/>
<path d="M101.628 135.418C102.346 135.418 102.929 134.696 102.929 133.806C102.929 132.915 102.346 132.194 101.628 132.194C100.909 132.194 100.327 132.915 100.327 133.806C100.327 134.696 100.909 135.418 101.628 135.418Z" fill="#4C889B"/>
<path d="M86.9725 193.816L100.313 133.396C100.313 133.396 101.082 132.256 101.628 132.256C102.174 132.256 102.972 133.396 102.972 133.396L116.348 193.896L114.443 194.555L102.62 140.913L100.643 141.144L88.8772 194.466L86.9725 193.816Z" fill="#4C889B"/>
<path d="M116.42 193.949H86.8359C86.8359 198.037 94.6128 203.568 101.628 203.568C108.643 203.568 116.42 197.663 116.42 193.949Z" fill="#81AFC1"/>
<path d="M101.628 196.853C109.797 196.853 116.42 195.605 116.42 194.065C116.42 192.526 109.797 191.278 101.628 191.278C93.4585 191.278 86.8359 192.526 86.8359 194.065C86.8359 195.605 93.4585 196.853 101.628 196.853Z" fill="#335E68"/>
<path d="M101.628 192.177C107.766 192.177 112.316 192.881 114.457 193.593C114.838 193.718 114.838 194.404 114.457 194.528C112.316 195.241 107.766 195.944 101.628 195.944C95.4897 195.944 90.94 195.25 88.7981 194.537C88.4172 194.413 88.4172 193.727 88.7981 193.602C90.94 192.881 95.4897 192.177 101.628 192.177ZM101.628 191.278C93.4556 191.278 86.8359 192.524 86.8359 194.065C86.8359 195.606 93.4556 196.853 101.628 196.853C109.8 196.853 116.42 195.606 116.42 194.065C116.42 192.524 109.8 191.278 101.628 191.278ZM97.1572 200.406C98.5444 201.253 98.2856 201.787 97.4375 201.894C95.7556 202.108 92.9956 200.798 91.3425 199.035C90.8609 198.518 90.2716 196.755 91.8672 197.049C94.3397 197.494 94.16 198.563 97.1572 200.406Z" fill="#A3CDD9"/>
<path d="M100.643 133.512V133.485C100.643 132.808 101.089 132.256 101.635 132.256C102.181 132.256 102.627 132.808 102.627 133.485V196.897C102.627 197.574 102.181 198.127 101.635 198.127C101.089 198.127 100.643 197.574 100.643 196.897V133.512Z" fill="#4C889B"/>
<path d="M101.628 138.375C103.811 138.375 105.581 136.181 105.581 133.476C105.581 130.771 103.811 128.578 101.628 128.578C99.4446 128.578 97.6747 130.771 97.6747 133.476C97.6747 136.181 99.4446 138.375 101.628 138.375Z" fill="#4C889B"/>
<path d="M102.303 129.575C103.259 130.109 102.828 131.134 102.634 131.436C102.109 132.265 101.254 132.3 100.622 133.191C100.348 133.574 100.205 134.456 99.5937 134.661C99.5074 134.697 99.4158 134.71 99.3251 134.699C99.2343 134.688 99.1465 134.653 99.0676 134.597C98.9886 134.54 98.9203 134.463 98.8673 134.371C98.8142 134.28 98.7776 134.175 98.76 134.064C98.5156 132.274 99.0547 131.027 100.003 130.154C100.442 129.744 101.347 129.041 102.303 129.575Z" fill="#81AFC1"/>
<path d="M144.717 193.745L158.229 133.387C158.229 133.387 159.006 132.247 159.552 132.247C160.098 132.247 160.896 133.396 160.896 133.396L174.099 193.958L172.187 194.617L160.508 140.913L158.531 141.144L146.614 194.404L144.717 193.745Z" fill="#4C889B"/>
<path d="M174.164 194.021L144.58 193.887C144.566 197.975 152.328 203.542 159.343 203.568C166.358 203.604 174.157 197.726 174.164 194.021Z" fill="#81AFC1"/>
<path d="M174.163 194.128C174.167 192.589 167.548 191.312 159.379 191.276C151.209 191.24 144.583 192.459 144.579 193.998C144.575 195.538 151.194 196.815 159.363 196.851C167.532 196.887 174.158 195.668 174.163 194.128Z" fill="#335E68"/>
<path d="M159.379 192.177C165.518 192.204 170.067 192.925 172.202 193.647C172.583 193.771 172.576 194.457 172.202 194.582C170.06 195.285 165.51 195.971 159.372 195.944C153.234 195.918 148.684 195.196 146.55 194.475C146.169 194.35 146.176 193.664 146.55 193.54C148.684 192.836 153.241 192.15 159.379 192.177ZM159.379 191.278C151.207 191.242 144.58 192.462 144.58 194.003C144.573 195.544 151.193 196.817 159.365 196.853C167.537 196.889 174.164 195.668 174.164 194.128C174.171 192.596 167.552 191.313 159.379 191.278ZM154.88 200.38C156.267 201.235 155.879 201.636 155.031 201.742C153.349 201.956 150.826 200.478 148.958 198.714C148.454 198.233 147.578 196.514 149.604 196.995C152.027 197.583 152.091 198.661 154.88 200.38Z" fill="#A3CDD9"/>
<path d="M158.553 133.503V133.476C158.554 133.151 158.659 132.84 158.845 132.611C159.031 132.383 159.283 132.255 159.545 132.256C159.807 132.257 160.058 132.387 160.242 132.618C160.427 132.848 160.53 133.16 160.529 133.485V133.53L160.35 196.898C160.349 197.058 160.323 197.217 160.273 197.366C160.223 197.514 160.15 197.649 160.058 197.762C159.966 197.875 159.856 197.965 159.736 198.026C159.616 198.087 159.488 198.118 159.358 198.118C159.228 198.117 159.1 198.085 158.98 198.023C158.86 197.961 158.751 197.87 158.66 197.756C158.569 197.642 158.496 197.506 158.447 197.358C158.398 197.209 158.373 197.049 158.373 196.889L158.553 133.503Z" fill="#4C889B"/>
<path d="M159.832 129.531C160.788 130.065 160.386 131.116 160.163 131.392C159.739 131.926 159.236 132.354 158.761 132.808C158.251 133.298 157.834 133.806 157.036 133.227C156.131 132.577 156.684 130.991 157.489 130.243C157.92 129.842 158.876 129.005 159.832 129.531Z" fill="#81AFC1"/>
<g clip-path="url(#clip1_10_7676)">
<path d="M178.984 115.382C181.363 119.828 187.089 118.827 187.089 118.827C187.089 118.827 189.985 112.789 187.606 108.343C185.227 103.897 178.038 102.052 178.038 102.052C178.038 102.052 176.605 110.936 178.984 115.382ZM189.619 116.96C188.18 121.319 191.181 124.985 191.181 124.985C191.181 124.985 195.754 123.934 197.194 119.576C198.633 115.217 196.689 108.684 196.689 108.684C196.689 108.684 191.059 112.601 189.619 116.96Z" fill="#FFCC66"/>
<path d="M182.302 128.632C185.87 129.853 189.339 125.894 189.339 125.894C189.339 125.894 188.948 120.598 185.38 119.377C181.811 118.157 176.008 121.183 176.008 121.183C176.008 121.183 178.734 127.412 182.302 128.632ZM194.314 128.293C192.437 132.477 194.948 136.564 194.948 136.564C194.948 136.564 199.469 136.109 201.492 131.984C203.37 127.8 202.207 120.963 202.207 120.963C202.207 120.963 196.192 124.109 194.314 128.293ZM185.816 139.082C189.186 140.84 192.96 137.415 192.96 137.415C192.96 137.415 193.073 132.114 189.769 130.177C186.399 128.419 180.422 130.553 180.422 130.553C180.422 130.553 182.446 137.324 185.816 139.082ZM196.796 140.181C194.414 144.369 196.727 148.994 196.727 148.994C196.727 148.994 201.554 149.072 203.723 145.005C206.104 140.817 205.432 133.559 205.432 133.559C205.432 133.559 199.177 135.993 196.796 140.181ZM187.13 150.503C190.447 152.857 194.66 149.606 194.66 149.606C194.66 149.606 195.262 143.885 192.024 141.769C188.707 139.415 182.424 141.016 182.424 141.016C182.424 141.016 183.812 148.15 187.13 150.503ZM198.63 154.277C195.453 158.353 197.078 163.936 197.078 163.936C197.078 163.936 202.012 165.085 205.189 161.01C208.366 156.934 208.74 148.655 208.74 148.655C208.74 148.655 201.661 150.143 198.63 154.277ZM186.695 163.487C189.829 166.795 194.784 164.253 194.784 164.253C194.784 164.253 196.315 158.286 193.182 154.978C190.048 151.67 183.008 152.146 183.008 152.146C183.008 152.146 183.562 160.179 186.695 163.487ZM198.664 170.532C194.903 174.374 195.972 180.558 195.972 180.558C195.972 180.558 201.079 182.599 204.694 178.698C208.309 174.797 209.677 166.093 209.677 166.093C209.677 166.093 202.425 166.69 198.664 170.532ZM185.322 178.563C188.192 182.588 193.599 180.637 193.599 180.637C193.599 180.637 195.911 174.366 192.976 170.52C190.107 166.495 182.747 166.021 182.747 166.021C182.747 166.021 182.453 174.538 185.322 178.563Z" fill="#FFCC66"/>
<path d="M186.652 118.652C190.798 126.477 193.183 135.448 194.282 144.727C194.726 149.427 195.023 154.069 194.897 158.953C194.837 163.657 194.564 168.482 194.146 173.249C193.728 178.016 193.098 182.904 192.322 187.733C191.546 192.563 190.624 197.334 189.702 202.105C188.634 206.818 187.499 211.71 186.432 216.423C185.218 221.078 183.938 225.911 182.512 230.687C184.375 226.086 186.093 221.427 187.453 216.831C188.879 212.056 190.305 207.28 191.519 202.626C192.799 197.792 193.721 193.021 194.497 188.192C195.273 183.362 196.049 178.533 196.533 173.586C197.018 168.64 197.144 163.757 197.124 158.815C197.105 153.873 196.661 149.173 196.072 144.414C195.336 139.598 194.323 135.081 192.74 130.748C191.222 126.235 189.215 122.144 186.652 118.652Z" fill="#FFCC66"/>
</g>
<circle cx="131" cy="167" r="114.5" stroke="url(#paint0_linear_10_7676)" stroke-width="3"/>
<circle cx="131.5" cy="167.5" r="93" stroke="url(#paint1_linear_10_7676)" stroke-width="3"/>
<defs>
<linearGradient id="paint0_linear_10_7676" x1="131" y1="51" x2="131" y2="283" gradientUnits="userSpaceOnUse">
<stop stop-color="#FF1D1D"/>
<stop offset="1" stop-color="#E2CBCB"/>
</linearGradient>
<linearGradient id="paint1_linear_10_7676" x1="131.5" y1="73" x2="131.5" y2="262" gradientUnits="userSpaceOnUse">
<stop stop-color="#EE2121"/>
<stop offset="1" stop-color="#D2ABAB"/>
</linearGradient>
<clipPath id="clip0_10_7676">
<rect width="100.573" height="122.224" fill="white" transform="matrix(0.928592 -0.371102 0.345945 0.938255 0.825806 129.943)"/>
</clipPath>
<clipPath id="clip1_10_7676">
<rect width="100.573" height="122.224" fill="white" transform="matrix(-0.928592 -0.371102 -0.345945 0.938255 260.174 129.943)"/>
</clipPath>
</defs>
</svg>
